<?xml version="1.0" encoding="utf-8"?>
<!-- Generator: Adobe Illustrator 16.0.0, SVG Export Plug-In . SVG Version: 6.00 Build 0)  -->
<!DOCTYPE svg PUBLIC "-//W3C//DTD SVG 1.1//EN" "http://www.w3.org/Graphics/SVG/1.1/DTD/svg11.dtd">
<svg version="1.1" id="Layer_1" xmlns="http://www.w3.org/2000/svg" xmlns:xlink="http://www.w3.org/1999/xlink" x="0px" y="0px"
	 width="918.092px" height="831.862px" viewBox="0 0 918.092 831.862" enable-background="new 0 0 918.092 831.862"
	 xml:space="preserve">
<path fill-rule="evenodd" clip-rule="evenodd" d="M41.007,289.872c9.554-39.517,35.346-66.394,70.161-87.616
	c-4.46-3.327-7.693-5.69-10.876-8.122C73.9,173.97,68.512,137.423,88.628,111.202c20.828-27.146,47.017-46.079,82.115-49.695
	c22.392-2.308,43.467,3.93,59.521,18.66c19.284,17.693,36.781,37.705,52.747,58.482c7.841,10.204,13.68,16.046,27.642,14.516
	c25.085-2.749,41.354,10.434,47.342,35.564c-14.346-1.756-28.44-4.382-42.621-5.008c-22.062-0.975-34.911,9.655-37.189,28.955
	c-2.104,17.798,9.807,33.032,29.855,37.483c14.459,3.21,29.051,5.818,45.611,9.095c-2.004,11.324-4.49,21.988-5.685,32.796
	c-3.059,27.66-5.269,55.415-8.393,83.068c-1.262,11.163,2.533,16.123,13.899,17.039c35.157,2.832,70.211,7.327,105.409,9.126
	c25.298,1.294,42.036,11.006,53.821,34.23c24.131,47.553,50.714,93.857,75.842,140.914c14.561,27.271,3.048,55.652-24.914,63.279
	c-19.354,5.28-38.118-3.633-49.492-24.349c-20.985-38.224-42.107-76.388-62.091-115.138c-6.649-12.895-15.3-17.736-29.389-18.563
	c-28.707-1.685-57.348-4.785-85.934-8.036c-10.658-1.212-15.403,2.226-19.06,12.501c-33.412,93.9-67.712,187.486-101.056,281.41
	c-6.77,19.07-16.521,33.996-36.201,40.915c-5.576,0-11.152,0-16.728,0c-33.474-15.931-40.125-32.428-27.166-68.273
	c33.723-93.287,67.534-186.543,101.324-279.805c6.907-19.064,3.347-29.413-15.238-41.834c-3.263,21.85-17.438,32.232-37.688,35.314
	c-25.8,3.928-49.859-0.722-71.519-15.924c-31.062-21.8-52.865-50.418-63.96-86.87c-3.073-10.092-5.633-20.34-8.428-30.516
	C41.007,310.318,41.007,300.095,41.007,289.872z M208.648,157.873c-0.048-15.482-13.076-28.237-28.643-28.04
	c-15.451,0.195-28.228,13.392-27.893,28.81c0.317,14.591,13.158,27.215,27.995,27.522
	C195.292,186.482,208.694,173.195,208.648,157.873z M210.86,127.142c-0.825-16.969-20.618-31.449-41.507-31.548
	c-24.326-0.116-45.94,19.269-48.351,43.366c-2.222,22.201,10.142,42.754,27.381,45.517c-16.607-30.347-16.979-45.327-1.506-60.688
	C163.108,107.675,176.372,108.256,210.86,127.142z"/>
<path fill-rule="evenodd" clip-rule="evenodd" d="M882.996,800.084c-5.079,0.349-10.158,0.998-15.237,1.001
	c-161.565,0.053-323.129,0.045-484.693,0.045c-4.596,0-9.192,0-16.293,0c3.229-4.635,4.923-7.579,7.107-10.095
	c4.566-5.255,9.841-9.94,14.042-15.455c40.225-52.802,91.917-88.742,155.221-109.115c37.324-12.011,70.3-32.796,102.262-55.553
	c14.675-10.448,22.075-22.309,23.401-39.746c1.005-13.23,1.435-28.369,18.374-32.042c6.25-1.355,15.572-0.744,19.882,3.061
	c38.614,34.108,76.605,68.935,114.255,104.11c5.101,4.767,8.12,12.323,10.714,19.117c15.206,39.831,29.959,79.833,44.987,119.729
	c1.584,4.205,3.965,8.109,5.978,12.154C882.996,798.226,882.996,799.154,882.996,800.084z"/>
<path fill-rule="evenodd" clip-rule="evenodd" d="M406.512,6.932c36.298,12.814,56.658,47.957,49.767,85.976
	c-6.393,35.27-38.623,60.678-76.312,60.158c-36.683-0.505-67.614-27.479-73.292-63.917c-5.626-36.099,17.144-71.818,52.935-83.091
	C363.104,4.958,402.658,5.572,406.512,6.932z"/>
<path fill-rule="evenodd" clip-rule="evenodd" d="M285.887,216.063c-0.223-16.943,15.256-29.097,33.479-25.747
	c30.079,5.53,60.226,10.817,90.055,17.501c11.48,2.572,17.87-0.407,24.358-9.663c15.172-21.644,31.367-42.572,47.205-63.748
	c2.494-3.335,5.001-6.746,7.991-9.612c10.288-9.866,25.094-10.976,35.507-2.939c10.747,8.295,13.839,22.458,6.166,34.906
	c-6.79,11.021-15.021,21.165-22.745,31.6c-15.455,20.882-31.18,41.568-46.437,62.594c-8.811,12.143-19.624,17.218-34.792,14.176
	c-39.524-7.927-79.199-15.092-118.748-22.896C293.393,239.365,286.073,230.106,285.887,216.063z"/>
<path fill-rule="evenodd" clip-rule="evenodd" d="M545.39,93.077c6.981-4.672,10.959-7.324,14.926-9.992
	c2.501-1.682,4.966-4.818,7.483-4.854c25.391-0.364,50.789-0.222,76.911-0.222c0,21.649,0,41.844,0,63.736
	c-25.761,0-51.129,0.185-76.483-0.267c-2.743-0.049-5.352-3.892-8.146-5.794c-3.265-2.222-6.665-4.243-10.006-6.351
	c-1.587,3.416-3.681,6.701-4.612,10.288c-0.854,3.292-0.454,6.909-0.969,10.361c-4.57-32.814-17.514-43.6-49.947-39.998
	c0-14.239-3.809-29.811,0.897-42.133c6.975-18.261,25.958-5.851,39.387-8.53c8.576-1.71,10.873,4.841,10.597,12.394
	C545.228,77.19,545.39,82.678,545.39,93.077z"/>
<path fill-rule="evenodd" clip-rule="evenodd" d="M655.063,77.842c5.887,0,10.875,0.202,15.842-0.043
	c9.334-0.46,13.659,3.846,13.594,13.141c-0.089,12.482-0.342,24.986,0.25,37.444c0.493,10.362-3.832,14.406-13.916,13.539
	c-4.939-0.425-9.947-0.074-15.77-0.074C655.063,120.477,655.063,100.34,655.063,77.842z"/>
<path fill-rule="evenodd" clip-rule="evenodd" d="M714.489,327.757c-16.079-2.195-32.544-4.441-50.306-6.864
	c3.219-2.576,7.279-7.626,12.474-9.455c4.822-1.698,11.21-1.089,16.285,0.498c12.635,3.952,22.075,1.752,31.959-8.057
	c12.519-12.425,19.95-12.275,29.997-5.621C741.732,307.869,728.036,317.867,714.489,327.757z"/>
<path fill-rule="evenodd" clip-rule="evenodd" d="M860.303,338.976c-14.247,11.136-25.894,19.032-35.947,28.601
	c-5.194,4.944-8.47,5.666-15.327,3.864c-13.32-3.503-27.216-4.822-40.805-7.034c1.544-7.471,5.2-12.323,16.577-9.641
	c20.569,4.848,36.771,0.954,52.33-13.345C841.415,337.483,851.362,339.708,860.303,338.976z"/>
<path fill-rule="evenodd" clip-rule="evenodd" d="M782.563,246.686c4.02-2.578,8.793-7.174,14.424-8.795
	c4.991-1.438,11.212-0.506,16.404,1.026c11.563,3.414,20.21,1.858,29.294-7.544c13.321-13.789,21.8-13.795,30.497-6.695
	c-11.287,9.223-22.925,19.018-34.945,28.317c-2.404,1.86-6.457,2.969-9.429,2.478C813.858,253,799.015,249.883,782.563,246.686z"/>
<path fill-rule="evenodd" clip-rule="evenodd" fill="#FFFFFF" d="M208.648,157.873c0.046,15.322-13.356,28.609-28.541,28.293
	c-14.837-0.308-27.677-12.931-27.995-27.522c-0.335-15.418,12.441-28.615,27.893-28.81
	C195.572,129.636,208.6,142.391,208.648,157.873z"/>
<path fill-rule="evenodd" clip-rule="evenodd" fill="#FFFFFF" d="M210.86,127.142c-34.488-18.886-47.752-19.467-63.983-3.353
	c-15.473,15.36-15.101,30.34,1.506,60.688c-17.239-2.762-29.603-23.316-27.381-45.517c2.411-24.097,24.025-43.481,48.351-43.366
	C190.242,95.693,210.035,110.173,210.86,127.142z"/>
<ellipse fill-rule="evenodd" clip-rule="evenodd" cx="381.717" cy="79.736" rx="75.876" ry="77.578"/>
</svg>
